<svg xmlns="http://www.w3.org/2000/svg" width="512" height="512" stroke="none" stroke-linecap="round" stroke-linejoin="round" fill="#66ff80" fill-rule="nonzero"><path d="M255.5 234.5c9.9 0 18 8.1 18 18s-8.1 18-18 18-18-8.1-18-18 8.1-18 18-18m0-14c-17.7 0-32 14.3-32 32s14.3 32 32 32 32-14.3 32-32-14.3-32-32-32h0zm-127.6 14c9.9 0 18 8.1 18 18s-8.1 18-18 18-18-8.1-18-18 8.1-18 18-18m0-14c-17.7 0-32 14.3-32 32s14.3 32 32 32 32-14.3 32-32-14.4-32-32-32h0zm255.6 14c9.9 0 18 8.1 18 18s-8.1 18-18 18-18.0002-8.1-18.0002-18 8.1-18 18.0002-18m0-14c-17.7002 0-32 14.3-32 32s14.3 32 32 32 31.9998-14.3 31.9998-32-14.3-32-31.9998-32h0z"/></svg>